<svg width="16" height="16" viewBox="0 0 16 16" fill="none" xmlns="http://www.w3.org/2000/svg">
<path d="M7.92813 0C0.575325 0 0 0.575725 0 7.92813V8.07188C0 15.4243 0.575326 16 7.92813 16H8.07188C15.4247 16 16 15.4243 16 8.07188V8C16 0.5808 15.4192 0 8 0H7.92813ZM12.7977 2.4C13.2397 2.3988 13.5988 2.75566 13.6 3.19766C13.6012 3.63966 13.2444 3.9988 12.8024 4C12.3604 4.0012 12.0012 3.64435 12 3.20235C11.9988 2.76035 12.3557 2.4012 12.7977 2.4ZM7.99063 4C10.1994 3.9948 11.9948 5.78183 12 7.99063C12.0052 10.1994 10.2182 11.9948 8.00938 12C5.80058 12.0052 4.0052 10.2182 4 8.00938C3.9948 5.80058 5.78183 4.0052 7.99063 4ZM7.99454 5.6C6.66894 5.6032 5.5968 6.68065 5.6 8.00625C5.6032 9.33146 6.68027 10.4032 8.00547 10.4C9.33107 10.3968 10.4032 9.31974 10.4 7.99454C10.3968 6.66894 9.31974 5.5968 7.99454 5.6Z" fill="white"/>
</svg>
