<svg width="21" height="21" viewBox="0 0 21 21" fill="none" xmlns="http://www.w3.org/2000/svg">
<g clip-path="url(#clip0_0_98)">
<path d="M9.84375 14.4375L8.91844 15.3628L10.6116 17.0625H2.625V5.25H1.3125V17.0625C1.3125 17.7863 1.90116 18.375 2.625 18.375H10.6116L8.91844 20.0747L9.84375 21L13.125 17.7188L9.84375 14.4375Z" fill="white"/>
<path d="M7.21875 11.1562C7.58119 11.1562 7.875 10.8624 7.875 10.5C7.875 10.1376 7.58119 9.84375 7.21875 9.84375C6.85631 9.84375 6.5625 10.1376 6.5625 10.5C6.5625 10.8624 6.85631 11.1562 7.21875 11.1562Z" fill="white"/>
<path d="M15.75 13.125H5.25C4.52616 13.125 3.9375 12.5363 3.9375 11.8125V9.1875C3.9375 8.46366 4.52616 7.875 5.25 7.875H15.75C16.4738 7.875 17.0625 8.46366 17.0625 9.1875V11.8125C17.0625 12.5363 16.4738 13.125 15.75 13.125ZM5.25 9.1875V11.8125H15.75V9.1875H5.25Z" fill="white"/>
<path d="M18.375 2.625H10.3884L12.0816 0.925312L11.1562 0L7.875 3.28125L11.1562 6.5625L12.0816 5.63719L10.3884 3.9375H18.375V15.75H19.6875V3.9375C19.6875 3.21431 19.0988 2.625 18.375 2.625Z" fill="white"/>
</g>
<defs>
<clipPath id="clip0_0_98">
<rect width="21" height="21" fill="white"/>
</clipPath>
</defs>
</svg>
