<svg width="13" height="10" viewBox="0 0 13 10" fill="none" xmlns="http://www.w3.org/2000/svg">
<path d="M12.7844 5.43087C12.9225 5.2928 13 5.10557 13 4.91034C13 4.71511 12.9225 4.52787 12.7844 4.3898L8.61941 0.224772C8.55149 0.154452 8.47025 0.0983614 8.38042 0.0597747C8.29059 0.021188 8.19398 0.000877308 8.09622 2.77985e-05C7.99846 -0.000821711 7.90151 0.0178071 7.81102 0.054827C7.72054 0.0918468 7.63834 0.146517 7.56921 0.215646C7.50008 0.284776 7.44541 0.36698 7.40839 0.457464C7.37137 0.547948 7.35274 0.644898 7.35359 0.742659C7.35444 0.840419 7.37475 0.937031 7.41334 1.02686C7.45192 1.11668 7.50801 1.19793 7.57833 1.26584L10.4866 4.17408H0.736261C0.540992 4.17408 0.353721 4.25165 0.215646 4.38972C0.0775696 4.5278 0 4.71507 0 4.91034C0 5.1056 0.0775696 5.29288 0.215646 5.43095C0.353721 5.56903 0.540992 5.6466 0.736261 5.6466H10.4866L7.57833 8.55483C7.44422 8.69369 7.37001 8.87967 7.37168 9.07271C7.37336 9.26576 7.45079 9.45042 7.5873 9.58693C7.72381 9.72344 7.90847 9.80087 8.10152 9.80255C8.29456 9.80423 8.48054 9.73002 8.61941 9.5959L12.7844 5.43087Z" fill="black"/>
</svg>
