<svg width="21" height="21" viewBox="0 0 21 21" fill="none" xmlns="http://www.w3.org/2000/svg">
<path fill-rule="evenodd" clip-rule="evenodd" d="M10.4999 7.77875C11.1194 7.77842 11.719 7.99718 12.1928 8.39634C12.6665 8.7955 12.9838 9.34934 13.0885 9.9599C13.1933 10.5705 13.0787 11.1984 12.7651 11.7326C12.4515 12.2669 11.9591 12.673 11.3749 12.8791V17.4029H9.62492V12.8791C9.04116 12.6725 8.54922 12.2662 8.23598 11.732C7.92274 11.1979 7.80836 10.5702 7.91305 9.95983C8.01773 9.3495 8.33475 8.7958 8.8081 8.39654C9.28145 7.99729 9.88067 7.77816 10.4999 7.77788M10.4999 9.52788C10.732 9.52788 10.9545 9.62007 11.1186 9.78416C11.2827 9.94825 11.3749 10.1708 11.3749 10.4029C11.3749 10.6349 11.2827 10.8575 11.1186 11.0216C10.9545 11.1857 10.732 11.2779 10.4999 11.2779C10.2679 11.2779 10.0453 11.1857 9.8812 11.0216C9.71711 10.8575 9.62492 10.6349 9.62492 10.4029C9.62492 10.1708 9.71711 9.94825 9.8812 9.78416C10.0453 9.62007 10.2679 9.52788 10.4999 9.52788Z" fill="white"/>
<path d="M6.16875 6.0725C5.59923 6.64073 5.14759 7.31588 4.83976 8.05917C4.53193 8.80246 4.37399 9.59924 4.375 10.4037C4.375 12.3086 5.24475 14.0105 6.60975 15.134L7.85488 13.888C7.31735 13.48 6.88149 12.9532 6.58139 12.3487C6.28129 11.7443 6.12509 11.0786 6.125 10.4037C6.125 9.19625 6.615 8.1025 7.406 7.31062L6.16875 6.0725ZM13.594 7.30887C14.0003 7.71532 14.3226 8.19784 14.5424 8.72887C14.7622 9.2599 14.8752 9.82903 14.875 10.4037C14.875 11.8265 14.196 13.09 13.1451 13.8889L14.3903 15.1349C15.0896 14.5606 15.6528 13.8382 16.0393 13.02C16.4257 12.2017 16.6258 11.3078 16.625 10.4029C16.626 9.59836 16.4681 8.80158 16.1602 8.05829C15.8524 7.315 15.4008 6.63985 14.8313 6.07162L13.594 7.30887Z" fill="white"/>
<path d="M0.875008 10.4038C0.873385 9.13929 1.12161 7.88696 1.60543 6.71872C2.08924 5.55047 2.79911 4.48933 3.69426 3.59625L4.93151 4.83438C4.19898 5.56489 3.6181 6.433 3.22226 7.3888C2.82643 8.3446 2.62345 9.36923 2.62501 10.4038C2.62357 11.4381 2.8266 12.4626 3.22243 13.4182C3.61826 14.3739 4.19908 15.2418 4.93151 15.9723L3.69426 17.2095C2.79932 16.3166 2.08957 15.2558 1.60576 14.0878C1.12195 12.9199 0.873616 11.6679 0.875008 10.4038ZM17.3058 17.2086C18.2006 16.3159 18.9103 15.2551 19.3941 14.0874C19.8779 12.9196 20.1263 11.6678 20.125 10.4038C20.125 7.7455 19.0479 5.33925 17.3058 3.598L16.0685 4.83525C16.8009 5.56566 17.3818 6.43363 17.7776 7.38928C18.1734 8.34492 18.3765 9.36938 18.375 10.4038C18.3765 11.4381 18.1734 12.4626 17.7776 13.4182C17.3818 14.3739 16.8009 15.2418 16.0685 15.9723L17.3058 17.2086Z" fill="white"/>
</svg>
