<svg width="21" height="21" viewBox="0 0 21 21" fill="none" xmlns="http://www.w3.org/2000/svg">
<mask id="mask0_0_80" style="mask-type:luminance" maskUnits="userSpaceOnUse" x="2" y="2" width="17" height="17">
<path d="M13.125 3.28125C13.125 3.1072 13.1941 2.94028 13.3172 2.81721C13.4403 2.69414 13.6072 2.625 13.7812 2.625H17.7188C17.8928 2.625 18.0597 2.69414 18.1828 2.81721C18.3059 2.94028 18.375 3.1072 18.375 3.28125V17.7188C18.375 17.8928 18.3059 18.0597 18.1828 18.1828C18.0597 18.3059 17.8928 18.375 17.7188 18.375H13.7812C13.6072 18.375 13.4403 18.3059 13.3172 18.1828C13.1941 18.0597 13.125 17.8928 13.125 17.7188V3.28125ZM2.625 3.28125C2.625 3.1072 2.69414 2.94028 2.81721 2.81721C2.94028 2.69414 3.1072 2.625 3.28125 2.625H11.1562C11.3303 2.625 11.4972 2.69414 11.6203 2.81721C11.7434 2.94028 11.8125 3.1072 11.8125 3.28125V5.90625C11.8125 6.0803 11.7434 6.24722 11.6203 6.37029C11.4972 6.49336 11.3303 6.5625 11.1562 6.5625H3.28125C3.1072 6.5625 2.94028 6.49336 2.81721 6.37029C2.69414 6.24722 2.625 6.0803 2.625 5.90625V3.28125ZM2.625 9.1875C2.625 9.01345 2.69414 8.84653 2.81721 8.72346C2.94028 8.60039 3.1072 8.53125 3.28125 8.53125H11.1562C11.3303 8.53125 11.4972 8.60039 11.6203 8.72346C11.7434 8.84653 11.8125 9.01345 11.8125 9.1875V11.8125C11.8125 11.9865 11.7434 12.1535 11.6203 12.2765C11.4972 12.3996 11.3303 12.4688 11.1562 12.4688H3.28125C3.1072 12.4688 2.94028 12.3996 2.81721 12.2765C2.69414 12.1535 2.625 11.9865 2.625 11.8125V9.1875ZM2.625 15.0938C2.625 14.9197 2.69414 14.7528 2.81721 14.6297C2.94028 14.5066 3.1072 14.4375 3.28125 14.4375H11.1562C11.3303 14.4375 11.4972 14.5066 11.6203 14.6297C11.7434 14.7528 11.8125 14.9197 11.8125 15.0938V17.7188C11.8125 17.8928 11.7434 18.0597 11.6203 18.1828C11.4972 18.3059 11.3303 18.375 11.1562 18.375H3.28125C3.1072 18.375 2.94028 18.3059 2.81721 18.1828C2.69414 18.0597 2.625 17.8928 2.625 17.7188V15.0938Z" fill="white"/>
</mask>
<g mask="url(#mask0_0_80)">
<path d="M13.125 3.28125C13.125 3.1072 13.1941 2.94028 13.3172 2.81721C13.4403 2.69414 13.6072 2.625 13.7812 2.625H17.7188C17.8928 2.625 18.0597 2.69414 18.1828 2.81721C18.3059 2.94028 18.375 3.1072 18.375 3.28125V17.7188C18.375 17.8928 18.3059 18.0597 18.1828 18.1828C18.0597 18.3059 17.8928 18.375 17.7188 18.375H13.7812C13.6072 18.375 13.4403 18.3059 13.3172 18.1828C13.1941 18.0597 13.125 17.8928 13.125 17.7188V3.28125ZM2.625 3.28125C2.625 3.1072 2.69414 2.94028 2.81721 2.81721C2.94028 2.69414 3.1072 2.625 3.28125 2.625H11.1562C11.3303 2.625 11.4972 2.69414 11.6203 2.81721C11.7434 2.94028 11.8125 3.1072 11.8125 3.28125V5.90625C11.8125 6.0803 11.7434 6.24722 11.6203 6.37029C11.4972 6.49336 11.3303 6.5625 11.1562 6.5625H3.28125C3.1072 6.5625 2.94028 6.49336 2.81721 6.37029C2.69414 6.24722 2.625 6.0803 2.625 5.90625V3.28125ZM2.625 9.1875C2.625 9.01345 2.69414 8.84653 2.81721 8.72346C2.94028 8.60039 3.1072 8.53125 3.28125 8.53125H11.1562C11.3303 8.53125 11.4972 8.60039 11.6203 8.72346C11.7434 8.84653 11.8125 9.01345 11.8125 9.1875V11.8125C11.8125 11.9865 11.7434 12.1535 11.6203 12.2765C11.4972 12.3996 11.3303 12.4688 11.1562 12.4688H3.28125C3.1072 12.4688 2.94028 12.3996 2.81721 12.2765C2.69414 12.1535 2.625 11.9865 2.625 11.8125V9.1875ZM2.625 15.0938C2.625 14.9197 2.69414 14.7528 2.81721 14.6297C2.94028 14.5066 3.1072 14.4375 3.28125 14.4375H11.1562C11.3303 14.4375 11.4972 14.5066 11.6203 14.6297C11.7434 14.7528 11.8125 14.9197 11.8125 15.0938V17.7188C11.8125 17.8928 11.7434 18.0597 11.6203 18.1828C11.4972 18.3059 11.3303 18.375 11.1562 18.375H3.28125C3.1072 18.375 2.94028 18.3059 2.81721 18.1828C2.69414 18.0597 2.625 17.8928 2.625 17.7188V15.0938Z" stroke="white" stroke-width="2"/>
</g>
</svg>
