<svg width="21" height="21" viewBox="0 0 21 21" fill="none" xmlns="http://www.w3.org/2000/svg">
<path d="M18.382 2.625C18.8615 2.625 19.25 3.01438 19.25 3.49388V17.5061C19.2484 17.7359 19.1565 17.9559 18.9941 18.1184C18.8316 18.281 18.6118 18.3732 18.382 18.375H2.618C2.38771 18.3748 2.16693 18.2831 2.00418 18.1202C1.84142 17.9573 1.75 17.7364 1.75 17.5061V3.49388C1.7516 3.26408 1.84354 3.04414 2.00595 2.88157C2.16836 2.71899 2.38821 2.62683 2.618 2.625H18.382ZM17.5 4.375H3.5V16.625H17.5V4.375ZM15.75 13.125V14.875H5.25V13.125H15.75ZM10.5 6.125V11.375H5.25V6.125H10.5ZM15.75 9.625V11.375H12.25V9.625H15.75ZM8.75 7.875H7V9.625H8.75V7.875ZM15.75 6.125V7.875H12.25V6.125H15.75Z" fill="white"/>
</svg>
