<svg width="21" height="21" viewBox="0 0 21 21" fill="none" xmlns="http://www.w3.org/2000/svg">
<path d="M18.3818 6.12828L10.5068 1.75328L2.63184 6.12828V14.8783L10.5068 19.2533L18.3818 14.8783V6.12828ZM10.5068 3.75703L15.6781 6.62703L13.0443 8.08828C12.4056 7.42328 11.5043 7.00328 10.5068 7.00328C9.50934 7.00328 8.60809 7.42328 7.96934 8.08828L5.33559 6.62703L10.5068 3.75703ZM9.63184 16.7683L4.38184 13.8545V8.10578L7.12059 9.62828C7.04184 9.89953 7.00684 10.197 7.00684 10.5033C7.00684 12.1308 8.11809 13.5045 9.63184 13.8895V16.7683ZM8.75684 10.5033C8.75684 9.54078 9.54434 8.75328 10.5068 8.75328C11.4693 8.75328 12.2568 9.54078 12.2568 10.5033C12.2568 11.4658 11.4693 12.2533 10.5068 12.2533C9.54434 12.2533 8.75684 11.4658 8.75684 10.5033ZM11.3818 16.7683V13.8983C12.8956 13.5133 14.0068 12.1395 14.0068 10.512C14.0068 10.2058 13.9718 9.90828 13.8931 9.62828L16.6318 8.10578V13.8545L11.3818 16.7683Z" fill="white"/>
</svg>
