<svg width="21" height="21" viewBox="0 0 21 21" fill="none" xmlns="http://www.w3.org/2000/svg">
<path d="M4.375 2.625C3.91087 2.625 3.46575 2.80937 3.13756 3.13756C2.80937 3.46575 2.625 3.91087 2.625 4.375V16.625C2.625 17.0891 2.80937 17.5342 3.13756 17.8624C3.46575 18.1906 3.91087 18.375 4.375 18.375H16.625C17.0891 18.375 17.5342 18.1906 17.8624 17.8624C18.1906 17.5342 18.375 17.0891 18.375 16.625V14.63C18.6395 14.4773 18.8594 14.258 19.0129 13.994C19.1664 13.73 19.2481 13.4304 19.25 13.125V7.87499C19.2481 7.5696 19.1664 7.27 19.0129 7.00597C18.8594 6.74195 18.6395 6.52269 18.375 6.37V4.375C18.375 3.91087 18.1906 3.46575 17.8624 3.13756C17.5342 2.80937 17.0891 2.625 16.625 2.625H4.375ZM4.375 4.375H16.625V6.125H11.375C10.9109 6.125 10.4657 6.30937 10.1376 6.63756C9.80937 6.96575 9.62499 7.41087 9.62499 7.87499V13.125C9.62499 13.5891 9.80937 14.0342 10.1376 14.3624C10.4657 14.6906 10.9109 14.875 11.375 14.875H16.625V16.625H4.375V4.375ZM11.375 7.87499H17.5V13.125H11.375V7.87499ZM14 9.18749C13.6519 9.18749 13.3181 9.32577 13.0719 9.57192C12.8258 9.81806 12.6875 10.1519 12.6875 10.5C12.6875 10.8481 12.8258 11.1819 13.0719 11.4281C13.3181 11.6742 13.6519 11.8125 14 11.8125C14.3481 11.8125 14.6819 11.6742 14.9281 11.4281C15.1742 11.1819 15.3125 10.8481 15.3125 10.5C15.3125 10.1519 15.1742 9.81806 14.9281 9.57192C14.6819 9.32577 14.3481 9.18749 14 9.18749Z" fill="white"/>
</svg>
