<svg width="21" height="21" viewBox="0 0 21 21" fill="none" xmlns="http://www.w3.org/2000/svg">
<path d="M2.95268 4.96664C2.37678 4.96664 1.82447 5.19542 1.41725 5.60264C1.01002 6.00986 0.78125 6.56217 0.78125 7.13807V13.6524C0.78125 14.2283 1.01002 14.7806 1.41725 15.1878C1.82447 15.595 2.37678 15.8238 2.95268 15.8238H6.20982V13.6524H2.95268V7.13807H6.20982V4.96664H2.95268ZM9.46696 4.96664C8.89107 4.96664 8.33876 5.19542 7.93153 5.60264C7.52431 6.00986 7.29554 6.56217 7.29554 7.13807V13.6524C7.29554 14.2283 7.52431 14.7806 7.93153 15.1878C8.33876 15.595 8.89107 15.8238 9.46696 15.8238H11.6384C12.2143 15.8238 12.7666 15.595 13.1738 15.1878C13.581 14.7806 13.8098 14.2283 13.8098 13.6524V7.13807C13.8098 6.56217 13.581 6.00986 13.1738 5.60264C12.7666 5.19542 12.2143 4.96664 11.6384 4.96664H9.46696ZM9.46696 7.13807H11.6384V13.6524H9.46696V7.13807ZM14.8955 8.76664V10.3952H18.1527V12.0238H16.5241C16.0922 12.0238 15.678 12.1954 15.3725 12.5008C15.0671 12.8062 14.8955 13.2204 14.8955 13.6524V16.9095H19.7812V15.2809H16.5241V13.6524H18.1527C18.5846 13.6524 18.9988 13.4808 19.3043 13.1754C19.6097 12.8699 19.7812 12.4557 19.7812 12.0238V10.3952C19.7812 9.96329 19.6097 9.54906 19.3043 9.24364C18.9988 8.93823 18.5846 8.76664 18.1527 8.76664H14.8955Z" fill="white"/>
</svg>
