<svg width="17" height="17" viewBox="0 0 17 17" fill="none" xmlns="http://www.w3.org/2000/svg">
<path d="M8.49995 0C3.80798 0 0 3.80798 0 8.49995C0 13.1919 3.80798 16.9999 8.49995 16.9999C13.1919 16.9999 16.9999 13.1919 16.9999 8.49995C16.9999 3.80798 13.1919 0 8.49995 0ZM12.4439 5.77996C12.3164 7.12295 11.7639 10.3869 11.4834 11.8914C11.3644 12.5289 11.1264 12.7414 10.9054 12.7669C10.4124 12.8094 10.0384 12.4439 9.56244 12.1294C8.81444 11.6364 8.38945 11.3304 7.66695 10.8544C6.82546 10.3019 7.36945 9.99594 7.85395 9.50294C7.98145 9.37544 10.1574 7.39495 10.1999 7.21645C10.2058 7.18942 10.2051 7.16135 10.1976 7.13469C10.1902 7.10802 10.1764 7.08357 10.1574 7.06345C10.1064 7.02096 10.0384 7.03796 9.97894 7.04645C9.90244 7.06345 8.71244 7.85395 6.39196 9.41794C6.05196 9.64744 5.74596 9.76644 5.47396 9.75794C5.16797 9.74944 4.58997 9.58794 4.15647 9.44344C3.62098 9.27344 3.20448 9.17994 3.23848 8.88244C3.25548 8.72944 3.46798 8.57644 3.86748 8.41495C6.34946 7.33545 7.99845 6.62146 8.82294 6.28146C11.1859 5.29547 11.6704 5.12547 11.9934 5.12547C12.0614 5.12547 12.2229 5.14247 12.3249 5.22747C12.4099 5.29547 12.4354 5.38897 12.4439 5.45697C12.4354 5.50796 12.4524 5.66096 12.4439 5.77996Z" fill="white"/>
</svg>
