<svg width="21" height="21" viewBox="0 0 21 21" fill="none" xmlns="http://www.w3.org/2000/svg">
<path d="M13.125 18.375L7.875 16.5375L3.80625 18.1125C3.51458 18.2292 3.24479 18.1965 2.99687 18.0145C2.74896 17.8325 2.625 17.5881 2.625 17.2812V5.03125C2.625 4.84167 2.67983 4.67396 2.7895 4.52813C2.89917 4.38229 3.0485 4.27292 3.2375 4.2L7.875 2.625L13.125 4.4625L17.1937 2.8875C17.4854 2.77083 17.7552 2.80379 18.0031 2.98638C18.251 3.16896 18.375 3.41308 18.375 3.71875V15.9688C18.375 16.1583 18.3205 16.326 18.2114 16.4719C18.1023 16.6177 17.9527 16.7271 17.7625 16.8L13.125 18.375ZM12.25 16.2312V5.99375L8.75 4.76875V15.0062L12.25 16.2312ZM14 16.2312L16.625 15.3562V4.9875L14 5.99375V16.2312ZM4.375 16.0125L7 15.0062V4.76875L4.375 5.64375V16.0125Z" fill="white"/>
</svg>
