<svg width="21" height="21" viewBox="0 0 21 21" fill="none" xmlns="http://www.w3.org/2000/svg">
<path d="M16.6316 13.1269C16.8066 12.9519 17.0146 12.8644 17.2555 12.8644C17.4964 12.8644 17.7041 12.9519 17.8785 13.1269L19.2567 14.5269C19.4317 14.7019 19.5191 14.9061 19.5191 15.1394C19.5191 15.3727 19.4317 15.5769 19.2567 15.7519C19.0817 15.9269 18.8775 16.0144 18.6441 16.0144C18.4108 16.0144 18.2066 15.9269 18.0317 15.7519L16.6316 14.3738C16.4566 14.1988 16.3692 13.9911 16.3692 13.7508C16.3692 13.5105 16.4566 13.3025 16.6316 13.1269ZM17.5066 2.62691C17.6816 2.80191 17.7691 3.00987 17.7691 3.25079C17.7691 3.4917 17.6816 3.69937 17.5066 3.87379L16.1285 5.25191C15.9535 5.42691 15.7459 5.51441 15.5055 5.51441C15.2652 5.51441 15.0572 5.42691 14.8816 5.25191C14.7061 5.07691 14.6186 4.86924 14.6191 4.62891C14.6197 4.38858 14.7072 4.18062 14.8816 4.00504L16.2816 2.62691C16.4566 2.45191 16.6608 2.36441 16.8941 2.36441C17.1275 2.36441 17.3316 2.45191 17.5066 2.62691ZM3.50664 2.62691C3.68164 2.45191 3.8896 2.36441 4.13052 2.36441C4.37144 2.36441 4.5791 2.45191 4.75352 2.62691L6.13165 4.02691C6.30665 4.20191 6.39415 4.40608 6.39415 4.63941C6.39415 4.87274 6.30665 5.07691 6.13165 5.25191C5.95665 5.42691 5.74898 5.51441 5.50865 5.51441C5.26831 5.51441 5.06035 5.42691 4.88477 5.25191L3.50664 3.87379C3.33164 3.69879 3.24414 3.49112 3.24414 3.25079C3.24414 3.01045 3.33164 2.80249 3.50664 2.62691ZM4.38164 13.1269C4.55664 13.3019 4.64415 13.5099 4.64415 13.7508C4.64415 13.9917 4.55664 14.1994 4.38164 14.3738L3.00352 15.7519C2.82852 15.9269 2.62085 16.0144 2.38052 16.0144C2.14019 16.0144 1.93223 15.9269 1.75664 15.7519C1.58106 15.5769 1.49356 15.3692 1.49414 15.1289C1.49473 14.8886 1.58223 14.6806 1.75664 14.505L3.15664 13.1269C3.33164 12.9519 3.53581 12.8644 3.76914 12.8644C4.00248 12.8644 4.20664 12.9519 4.38164 13.1269ZM7.7504 14.7238L10.5066 13.0613L13.2629 14.7457L12.541 11.5957L14.9691 9.49566L11.7754 9.21129L10.5066 6.23629L9.2379 9.18941L6.04415 9.47379L8.47227 11.5957L7.7504 14.7238ZM10.5066 15.1175L6.8754 17.305C6.71498 17.4071 6.54727 17.4509 6.37227 17.4363C6.19727 17.4217 6.04415 17.3634 5.9129 17.2613C5.78165 17.1592 5.67956 17.0317 5.60665 16.8789C5.53373 16.7261 5.51915 16.5546 5.56289 16.3644L6.5254 12.23L3.30977 9.45191C3.16394 9.32066 3.07294 9.17104 3.03677 9.00304C3.0006 8.83504 3.01139 8.67112 3.06914 8.51129C3.12689 8.35145 3.21439 8.2202 3.33164 8.11754C3.44889 8.01487 3.60931 7.94925 3.81289 7.92066L8.05665 7.54879L9.69727 3.65504C9.77019 3.48004 9.88336 3.34879 10.0368 3.26129C10.1902 3.17379 10.3468 3.13004 10.5066 3.13004C10.6665 3.13004 10.8231 3.17379 10.9765 3.26129C11.1299 3.34879 11.2431 3.48004 11.316 3.65504L12.9566 7.54879L17.2004 7.92066C17.4046 7.94983 17.565 8.01545 17.6817 8.11754C17.7983 8.21962 17.8858 8.35087 17.9442 8.51129C18.0025 8.6717 18.0136 8.83591 17.9774 9.00391C17.9412 9.17191 17.8499 9.32125 17.7035 9.45191L14.4879 12.23L15.4504 16.3644C15.4941 16.554 15.4796 16.7255 15.4066 16.8789C15.3337 17.0323 15.2316 17.1598 15.1004 17.2613C14.9691 17.3628 14.816 17.4211 14.641 17.4363C14.466 17.4515 14.2983 17.4077 14.1379 17.305L10.5066 15.1175Z" fill="white"/>
</svg>
