<?xml version="1.0" encoding="UTF-8"?>
<svg version="1.1" xmlns="http://www.w3.org/2000/svg" width="90" height="95">
<path d="M0 0 C4.95 0.33 9.9 0.66 15 1 C15 15.52 15 30.04 15 45 C20.94 45 26.88 45 33 45 C32.67 48.96 32.34 52.92 32 57 C15.83 57 -0.34 57 -17 57 C-17.33 53.04 -17.66 49.08 -18 45 C-12.06 45 -6.12 45 0 45 C0 30.15 0 15.3 0 0 Z " fill="#08ff77" transform="translate(30,38)"/>
<path d="M0 0 C4.50232334 -0.07417023 9.00429091 -0.1286105 13.50708008 -0.16479492 C15.03871861 -0.17987936 16.57031398 -0.20034978 18.10180664 -0.22631836 C20.30365654 -0.26271847 22.50493533 -0.27972913 24.70703125 -0.29296875 C25.39150833 -0.30845261 26.07598541 -0.32393646 26.78120422 -0.33988953 C31.52779971 -0.34156892 31.52779971 -0.34156892 33.83032227 1.32397461 C35.73643945 4.05524042 37.46415983 6.86634344 39.125 9.75 C39.66447266 10.64332031 39.66447266 10.64332031 40.21484375 11.5546875 C42.90854828 16.21570432 44.80652968 20.93518721 43.375 26.375 C42.92125 27.24125 42.4675 28.1075 42 29 C41.63390625 29.70382813 41.2678125 30.40765625 40.890625 31.1328125 C38.58889454 35.43790096 36.15932487 39.25561497 33 43 C33 43.33 33 43.66 33 44 C25.08 44.495 25.08 44.495 17 45 C17 40.38 17 35.76 17 31 C19.31 31 21.62 31 24 31 C27.71939312 25.43905309 27.71939312 25.43905309 28 19 C26.57378316 16.28873616 26.57378316 16.28873616 25 14 C25 13.67 25 13.34 25 13 C23.04707031 13.15662109 23.04707031 13.15662109 21.0546875 13.31640625 C7.50723392 14.08112869 7.50723392 14.08112869 3.40234375 11.13671875 C0.78666601 7.20998877 0 4.75992694 0 0 Z " fill="#4ade80" transform="translate(31,23)"/>
<path d="M0 0 C3.56205859 -0.05634419 7.11931455 -0.09413295 10.68188477 -0.07568359 C11.92260742 -0.10791016 13.16333008 -0.14013672 14.44165039 -0.17333984 C17.81956022 -0.17699361 20.92738488 -0.09189125 24.24438477 0.54931641 C26.92407227 3.30322266 26.92407227 3.30322266 28.24438477 6.54931641 C28.72262695 7.33435547 29.20086914 8.11939453 29.69360352 8.92822266 C30.10223633 9.64880859 30.51086914 10.36939453 30.93188477 11.11181641 C31.34825195 11.83498047 31.76461914 12.55814453 32.19360352 13.30322266 C33.32128671 15.7136979 33.82540669 17.9295524 34.24438477 20.54931641 C32.13989539 20.40821655 30.03579706 20.26127466 27.93188477 20.11181641 C26.76012695 20.03060547 25.58836914 19.94939453 24.38110352 19.86572266 C21.24438477 19.54931641 21.24438477 19.54931641 18.24438477 18.54931641 C17.87313477 17.70369141 17.50188477 16.85806641 17.11938477 15.98681641 C15.5261024 13.33249325 15.5261024 13.33249325 13.05297852 13.22119141 C10.76530029 13.23551177 8.52153187 13.33449121 6.24438477 13.54931641 C4.27097798 16.44193221 2.50719276 19.27457702 1.24438477 22.54931641 C2.11996591 25.96851709 2.11996591 25.96851709 4.24438477 28.54931641 C6.24438477 31.54931641 6.24438477 31.54931641 5.86938477 33.73681641 C5.66313477 34.33494141 5.45688477 34.93306641 5.24438477 35.54931641 C-6.02639989 36.90381723 -6.02639989 36.90381723 -9.95483398 33.82666016 C-13.53788895 28.76873995 -14.73798464 24.64000675 -13.75561523 18.54931641 C-12.50602026 16.00549807 -11.29993392 13.87897122 -9.75561523 11.54931641 C-9.0604887 10.3244466 -8.37284253 9.09529837 -7.69311523 7.86181641 C-7.05374023 6.76869141 -6.41436523 5.67556641 -5.75561523 4.54931641 C-5.34561279 3.83340332 -4.93561035 3.11749023 -4.51318359 2.37988281 C-2.75561523 0.54931641 -2.75561523 0.54931641 0 0 Z " fill="#07c677" transform="translate(26.755615234375,0.45068359375)"/>
<path d="M0 0 C0.99 0 1.98 0 3 0 C3.84584998 1.55575978 4.67618399 3.1199612 5.5 4.6875 C5.9640625 5.55761719 6.428125 6.42773438 6.90625 7.32421875 C8.0613503 10.15008912 8.28794802 11.98168775 8 15 C7.67 15.66 7.34 16.32 7 17 C7.43213648 23.21084053 7.43213648 23.21084053 11 28 C14.60465748 28.81314911 14.60465748 28.81314911 18 29 C18 32.96 18 36.92 18 41 C3.65686018 42.21352064 3.65686018 42.21352064 0 39.53515625 C-1.27980198 37.40916941 -2.13547018 35.32462462 -3 33 C-3.89732374 31.40562478 -4.81408154 29.82203017 -5.75 28.25 C-8.62511543 23.1912526 -9.51474437 19.73438941 -8 14 C-6.48957248 10.90252907 -4.76248951 7.95924164 -3 5 C-2.46375 3.989375 -1.9275 2.97875 -1.375 1.9375 C-0.92125 1.298125 -0.4675 0.65875 0 0 Z " fill="#00c261" transform="translate(9,26)"/>
<path d="" fill="#000000" transform="translate(0,0)"/>
<path d="" fill="#000000" transform="translate(0,0)"/>
<path d="" fill="#000000" transform="translate(0,0)"/>
</svg>
